# xmcd
#
# Track frame offsets:
#	150
#	14389
#	28741
#	46683
#	58357
#	71365
#	90927
#	105143
#	119402
#	137154
#	148783
#	161732
#
# Disc length: 2417 seconds
#
# Revision: 1
# Processed by: cddbd v1.5.2PL0 Copyright (c) Steve Scherf et al.
# Submitted via: audiograbber 1.83.01
#
DISCID=9d096f0c
DTITLE=Chartbuster - CB20350
DYEAR=1900
DGENRE=Karaoke
TTITLE0=Deryle Singletary - That's Why I Sing This Way (Vocal Version)
TTITLE1=Rodney Adkins - Sing Along (Vocal Version)
TTITLE2=David Nail - Memphis (Vocal Version)
TTITLE3=Joe and Tony Stampley - If It Ain't One Thing Its Another (Vocal Version)
TTITLE4=Deryl Dodd - Pearl Snaps (Vocal Version)
TTITLE5=Ricky Skaggs - Halfway Home Cafe (Vocal Version)
TTITLE6=Deryle Singletary - That's Why I Sing This Way
TTITLE7=Rodney Adkins - Sing Along
TTITLE8=David Nail - Memphis
TTITLE9=Joe and Tony Stampley - If It Ain't One Thing It's Another
TTITLE10=Deryl Dodd - Pearl Snaps
TTITLE11=Ricky Skaggs - Halfway Home Cafe
EXTD=
EXTT0=
EXTT1=
EXTT2=
EXTT3=
EXTT4=
EXTT5=
EXTT6=
EXTT7=
EXTT8=
EXTT9=
EXTT10=
EXTT11=
PLAYORDER=
